<?xml version="1.0" encoding="UTF-8"?>
<svg id="Layer_1" xmlns="http://www.w3.org/2000/svg" xmlns:xlink="http://www.w3.org/1999/xlink" viewBox="0 0 400 400">
  <defs>
    <style>
      .cls-1 {
        fill: url(#linear-gradient-8);
      }

      .cls-2 {
        fill: url(#linear-gradient-7);
      }

      .cls-3 {
        fill: url(#linear-gradient-5);
      }

      .cls-4 {
        fill: url(#linear-gradient-6);
      }

      .cls-5 {
        fill: url(#linear-gradient-9);
      }

      .cls-6 {
        fill: url(#linear-gradient-4);
      }

      .cls-7 {
        fill: url(#linear-gradient-3);
      }

      .cls-8 {
        fill: url(#linear-gradient-2);
      }

      .cls-9 {
        fill: url(#linear-gradient);
      }

      .cls-10 {
        fill: #fff;
      }

      .cls-11 {
        fill: url(#linear-gradient-43);
      }

      .cls-12 {
        fill: url(#linear-gradient-40);
      }

      .cls-13 {
        fill: url(#linear-gradient-41);
      }

      .cls-14 {
        fill: url(#linear-gradient-42);
      }

      .cls-15 {
        fill: url(#linear-gradient-49);
      }

      .cls-16 {
        fill: url(#linear-gradient-48);
      }

      .cls-17 {
        fill: url(#linear-gradient-45);
      }

      .cls-18 {
        fill: url(#linear-gradient-47);
      }

      .cls-19 {
        fill: url(#linear-gradient-44);
      }

      .cls-20 {
        fill: url(#linear-gradient-46);
      }

      .cls-21 {
        fill: url(#linear-gradient-10);
      }

      .cls-22 {
        fill: url(#linear-gradient-11);
      }

      .cls-23 {
        fill: url(#linear-gradient-12);
      }

      .cls-24 {
        fill: url(#linear-gradient-13);
      }

      .cls-25 {
        fill: url(#linear-gradient-19);
      }

      .cls-26 {
        fill: url(#linear-gradient-14);
      }

      .cls-27 {
        fill: url(#linear-gradient-21);
      }

      .cls-28 {
        fill: url(#linear-gradient-20);
      }

      .cls-29 {
        fill: url(#linear-gradient-22);
      }

      .cls-30 {
        fill: url(#linear-gradient-23);
      }

      .cls-31 {
        fill: url(#linear-gradient-28);
      }

      .cls-32 {
        fill: url(#linear-gradient-25);
      }

      .cls-33 {
        fill: url(#linear-gradient-32);
      }

      .cls-34 {
        fill: url(#linear-gradient-31);
      }

      .cls-35 {
        fill: url(#linear-gradient-33);
      }

      .cls-36 {
        fill: url(#linear-gradient-30);
      }

      .cls-37 {
        fill: url(#linear-gradient-15);
      }

      .cls-38 {
        fill: url(#linear-gradient-16);
      }

      .cls-39 {
        fill: url(#linear-gradient-17);
      }

      .cls-40 {
        fill: url(#linear-gradient-18);
      }

      .cls-41 {
        fill: url(#linear-gradient-35);
      }

      .cls-42 {
        fill: url(#linear-gradient-34);
      }

      .cls-43 {
        fill: url(#linear-gradient-36);
      }

      .cls-44 {
        fill: url(#linear-gradient-38);
      }

      .cls-45 {
        fill: url(#linear-gradient-27);
      }

      .cls-46 {
        fill: url(#linear-gradient-24);
      }

      .cls-47 {
        fill: url(#linear-gradient-26);
      }

      .cls-48 {
        fill: url(#linear-gradient-29);
      }

      .cls-49 {
        fill: url(#linear-gradient-37);
      }

      .cls-50 {
        fill: url(#linear-gradient-39);
      }

      .cls-51 {
        fill: url(#linear-gradient-57);
      }

      .cls-52 {
        fill: url(#linear-gradient-58);
      }

      .cls-53 {
        fill: url(#linear-gradient-59);
      }

      .cls-54 {
        fill: url(#linear-gradient-53);
      }

      .cls-55 {
        fill: url(#linear-gradient-54);
      }

      .cls-56 {
        fill: url(#linear-gradient-55);
      }

      .cls-57 {
        fill: url(#linear-gradient-56);
      }

      .cls-58 {
        fill: url(#linear-gradient-50);
      }

      .cls-59 {
        fill: url(#linear-gradient-51);
      }

      .cls-60 {
        fill: url(#linear-gradient-52);
      }

      .cls-61 {
        fill: url(#linear-gradient-67);
      }

      .cls-62 {
        fill: url(#linear-gradient-68);
      }

      .cls-63 {
        fill: url(#linear-gradient-69);
      }

      .cls-64 {
        fill: url(#linear-gradient-63);
      }

      .cls-65 {
        fill: url(#linear-gradient-64);
      }

      .cls-66 {
        fill: url(#linear-gradient-65);
      }

      .cls-67 {
        fill: url(#linear-gradient-66);
      }

      .cls-68 {
        fill: url(#linear-gradient-60);
      }

      .cls-69 {
        fill: url(#linear-gradient-61);
      }

      .cls-70 {
        fill: url(#linear-gradient-62);
      }

      .cls-71 {
        fill: url(#linear-gradient-79);
      }

      .cls-72 {
        fill: url(#linear-gradient-78);
      }

      .cls-73 {
        fill: url(#linear-gradient-75);
      }

      .cls-74 {
        fill: url(#linear-gradient-72);
      }

      .cls-75 {
        fill: url(#linear-gradient-77);
      }

      .cls-76 {
        fill: url(#linear-gradient-74);
      }

      .cls-77 {
        fill: url(#linear-gradient-76);
      }

      .cls-78 {
        fill: url(#linear-gradient-71);
      }

      .cls-79 {
        fill: url(#linear-gradient-73);
      }

      .cls-80 {
        fill: url(#linear-gradient-70);
      }

      .cls-81 {
        fill: url(#linear-gradient-87);
      }

      .cls-82 {
        fill: url(#linear-gradient-88);
      }

      .cls-83 {
        fill: url(#linear-gradient-89);
      }

      .cls-84 {
        fill: url(#linear-gradient-85);
      }

      .cls-85 {
        fill: url(#linear-gradient-83);
      }

      .cls-86 {
        fill: url(#linear-gradient-82);
      }

      .cls-87 {
        fill: url(#linear-gradient-84);
      }

      .cls-88 {
        fill: url(#linear-gradient-86);
      }

      .cls-89 {
        fill: url(#linear-gradient-81);
      }

      .cls-90 {
        fill: url(#linear-gradient-80);
      }

      .cls-91 {
        fill: url(#linear-gradient-99);
      }

      .cls-92 {
        fill: url(#linear-gradient-96);
      }

      .cls-93 {
        fill: url(#linear-gradient-97);
      }

      .cls-94 {
        fill: url(#linear-gradient-98);
      }

      .cls-95 {
        fill: url(#linear-gradient-92);
      }

      .cls-96 {
        fill: url(#linear-gradient-93);
      }

      .cls-97 {
        fill: url(#linear-gradient-94);
      }

      .cls-98 {
        fill: url(#linear-gradient-91);
      }

      .cls-99 {
        fill: url(#linear-gradient-95);
      }

      .cls-100 {
        fill: url(#linear-gradient-90);
      }

      .cls-101 {
        fill: url(#linear-gradient-104);
      }

      .cls-102 {
        fill: url(#linear-gradient-103);
      }

      .cls-103 {
        fill: url(#linear-gradient-102);
      }

      .cls-104 {
        fill: url(#linear-gradient-101);
      }

      .cls-105 {
        fill: url(#linear-gradient-100);
      }
    </style>
    <linearGradient id="linear-gradient" x1="200" y1="393" x2="200" y2="7" gradientUnits="userSpaceOnUse">
      <stop offset="0" stop-color="#003291"/>
      <stop offset="1" stop-color="#004991"/>
    </linearGradient>
    <linearGradient id="linear-gradient-2" x1="200" y1="390.63" x2="200" y2="25.47" gradientUnits="userSpaceOnUse">
      <stop offset="0" stop-color="#005791"/>
      <stop offset="1" stop-color="#007791"/>
    </linearGradient>
    <linearGradient id="linear-gradient-3" y1="393" y2="7" xlink:href="#linear-gradient"/>
    <linearGradient id="linear-gradient-4" x1="200" y1="391.4" x2="200" y2="24.42" xlink:href="#linear-gradient-2"/>
    <linearGradient id="linear-gradient-5" x1="9.91" y1="-732.38" x2="10.91" y2="-732.38" gradientTransform="translate(-282494.21 4217.44) rotate(-90) scale(385.99 -385.99)" gradientUnits="userSpaceOnUse">
      <stop offset="0" stop-color="#003291"/>
      <stop offset="1" stop-color="#004991"/>
    </linearGradient>
    <linearGradient id="linear-gradient-6" x1="9.9" y1="-732.51" x2="10.9" y2="-732.51" gradientTransform="translate(-267284.69 4006.72) rotate(-90) scale(365.16 -365.16)" gradientUnits="userSpaceOnUse">
      <stop offset="0" stop-color="#005791"/>
      <stop offset="1" stop-color="#007791"/>
    </linearGradient>
    <linearGradient id="linear-gradient-7" x1="9.9" y1="-732.5" x2="10.9" y2="-732.5" gradientTransform="translate(-268613.6 4025.7) rotate(-90) scale(366.98 -366.98)" xlink:href="#linear-gradient-6"/>
    <linearGradient id="linear-gradient-8" gradientTransform="translate(-282493.43 4217.44) rotate(-90) scale(385.99 -385.99)" xlink:href="#linear-gradient-5"/>
    <linearGradient id="linear-gradient-9" x1="-36.27" y1="-1926.2" x2="-35.27" y2="-1926.2" gradientTransform="translate(-1294.14 182.89) rotate(-90) scale(.77 -.77)" xlink:href="#linear-gradient-6"/>
    <linearGradient id="linear-gradient-10" x1="-1153.35" y1="-30802.52" x2="-1152.35" y2="-30802.52" gradientTransform="translate(-756.67 178.12) rotate(-90) scale(.03 -.03)" xlink:href="#linear-gradient-6"/>
    <linearGradient id="linear-gradient-11" x1="-179.84" y1="-5637.39" x2="-178.84" y2="-5637.39" gradientTransform="translate(-871.26 174.4) rotate(-90) scale(.19 -.19)" xlink:href="#linear-gradient-6"/>
    <linearGradient id="linear-gradient-12" x1="-252.96" y1="-7527.58" x2="-251.96" y2="-7527.58" gradientTransform="translate(-833.02 179.3) rotate(-90) scale(.14 -.14)" xlink:href="#linear-gradient-6"/>
    <linearGradient id="linear-gradient-13" x1="-1311.99" y1="-34903.31" x2="-1310.99" y2="-34903.31" gradientTransform="translate(-758.09 176.61) rotate(-90) scale(.03 -.03)" xlink:href="#linear-gradient-6"/>
    <linearGradient id="linear-gradient-14" x1="-53.72" y1="-2377.27" x2="-52.72" y2="-2377.27" gradientTransform="translate(-1141.64 179.74) rotate(-90) scale(.56 -.56)" xlink:href="#linear-gradient-6"/>
    <linearGradient id="linear-gradient-15" x1="-655.53" y1="-17933.96" x2="-654.53" y2="-17933.96" gradientTransform="translate(-774.34 172.79) rotate(-90) scale(.05 -.05)" xlink:href="#linear-gradient-6"/>
    <linearGradient id="linear-gradient-16" x1="-366.25" y1="-10455.91" x2="-365.25" y2="-10455.91" gradientTransform="translate(-804.01 173.29) rotate(-90) scale(.09 -.09)" xlink:href="#linear-gradient-6"/>
    <linearGradient id="linear-gradient-17" x1="-399.63" y1="-11318.91" x2="-398.63" y2="-11318.91" gradientTransform="translate(-802.59 175) rotate(-90) scale(.09 -.09)" xlink:href="#linear-gradient-6"/>
    <linearGradient id="linear-gradient-18" x1="-317.15" y1="-9186.84" x2="-316.15" y2="-9186.84" gradientTransform="translate(-818.49 175.14) rotate(-90) scale(.11 -.11)" xlink:href="#linear-gradient-6"/>
    <linearGradient id="linear-gradient-19" x1="-1130.54" y1="-30212.86" x2="-1129.54" y2="-30212.86" gradientTransform="translate(-759.05 179.21) rotate(-90) scale(.03 -.03)" xlink:href="#linear-gradient-6"/>
    <linearGradient id="linear-gradient-20" x1="-77.34" y1="-2987.7" x2="-76.34" y2="-2987.7" gradientTransform="translate(-1035.26 180.38) rotate(-90) scale(.41 -.41)" xlink:href="#linear-gradient-6"/>
    <linearGradient id="linear-gradient-21" x1="-26.3" y1="-1668.48" x2="-25.3" y2="-1668.48" gradientTransform="translate(-1451.1 185.96) rotate(-90) scale(.98 -.98)" xlink:href="#linear-gradient-6"/>
    <linearGradient id="linear-gradient-22" x1="-552.55" y1="-15271.84" x2="-551.55" y2="-15271.84" gradientTransform="translate(-783.85 176.07) rotate(-90) scale(.06 -.06)" xlink:href="#linear-gradient-6"/>
    <linearGradient id="linear-gradient-23" x1="-451.65" y1="-12663.54" x2="-450.65" y2="-12663.54" gradientTransform="translate(-793.9 176.14) rotate(-90) scale(.08 -.08)" xlink:href="#linear-gradient-6"/>
    <linearGradient id="linear-gradient-24" x1="-413.61" y1="-11680.37" x2="-412.61" y2="-11680.37" gradientTransform="translate(-797.67 175.74) rotate(-90) scale(.08 -.08)" xlink:href="#linear-gradient-6"/>
    <linearGradient id="linear-gradient-25" x1="-108.71" y1="-3798.62" x2="-107.71" y2="-3798.62" gradientTransform="translate(-955.25 178.19) rotate(-90) scale(.3 -.3)" xlink:href="#linear-gradient-6"/>
    <linearGradient id="linear-gradient-26" x1="180.57" y1="213.25" x2="180.59" y2="213.25" gradientTransform="translate(-743.31 177.84) rotate(-90) scale(0 0)" xlink:href="#linear-gradient-6"/>
    <linearGradient id="linear-gradient-27" x1="-1842.47" y1="-48616.17" x2="-1841.47" y2="-48616.17" gradientTransform="translate(-751.1 177.97) rotate(-90) scale(.02 -.02)" xlink:href="#linear-gradient-6"/>
    <linearGradient id="linear-gradient-28" x1="-671.12" y1="-18336.86" x2="-670.12" y2="-18336.86" gradientTransform="translate(-772.79 176.05) rotate(-90) scale(.05 -.05)" xlink:href="#linear-gradient-6"/>
    <linearGradient id="linear-gradient-29" x1="-690.81" y1="-18845.97" x2="-689.81" y2="-18845.97" gradientTransform="translate(-771.73 175.98) rotate(-90) scale(.05 -.05)" xlink:href="#linear-gradient-6"/>
    <linearGradient id="linear-gradient-30" x1="-711.68" y1="-19385.41" x2="-710.68" y2="-19385.41" gradientTransform="translate(-772.88 174.96) rotate(-90) scale(.05 -.05)" xlink:href="#linear-gradient-6"/>
    <linearGradient id="linear-gradient-31" x1="-292.96" y1="-8561.38" x2="-291.96" y2="-8561.38" gradientTransform="translate(-822.28 175.59) rotate(-90) scale(.12 -.12)" xlink:href="#linear-gradient-6"/>
    <linearGradient id="linear-gradient-32" x1="-1324.12" y1="-35216.83" x2="-1323.12" y2="-35216.83" gradientTransform="translate(-760.38 181.82) rotate(-90) scale(.03 -.03)" xlink:href="#linear-gradient-6"/>
    <linearGradient id="linear-gradient-33" x1="-99.92" y1="-3571.32" x2="-98.92" y2="-3571.32" gradientTransform="translate(-967.22 183.44) rotate(-90) scale(.32 -.32)" xlink:href="#linear-gradient-6"/>
    <linearGradient id="linear-gradient-34" x1="-38.43" y1="-1981.98" x2="-37.43" y2="-1981.98" gradientTransform="translate(-1266.23 187.21) rotate(-90) scale(.73 -.73)" xlink:href="#linear-gradient-6"/>
    <linearGradient id="linear-gradient-35" x1="-216.69" y1="-6589.8" x2="-215.69" y2="-6589.8" gradientTransform="translate(-844.62 177.01) rotate(-90) scale(.16 -.16)" xlink:href="#linear-gradient-6"/>
    <linearGradient id="linear-gradient-36" x1="-313.87" y1="-9102.08" x2="-312.87" y2="-9102.08" gradientTransform="translate(-810.9 180.25) rotate(-90) scale(.11 -.11)" xlink:href="#linear-gradient-6"/>
    <linearGradient id="linear-gradient-37" x1="-223.23" y1="-6758.97" x2="-222.23" y2="-6758.97" gradientTransform="translate(-844.5 172.54) rotate(-90) scale(.15 -.15)" xlink:href="#linear-gradient-6"/>
    <linearGradient id="linear-gradient-38" x1="-215.63" y1="-6562.53" x2="-214.63" y2="-6562.53" gradientTransform="translate(-847.98 172.74) rotate(-90) scale(.16 -.16)" xlink:href="#linear-gradient-6"/>
    <linearGradient id="linear-gradient-39" x1="-413.96" y1="-11689.37" x2="-412.96" y2="-11689.37" gradientTransform="translate(-798.28 171.19) rotate(-90) scale(.08 -.08)" xlink:href="#linear-gradient-6"/>
    <linearGradient id="linear-gradient-40" x1="-59.2" y1="-2518.75" x2="-58.2" y2="-2518.75" gradientTransform="translate(-1106.29 185.85) rotate(-90) scale(.51 -.51)" xlink:href="#linear-gradient-6"/>
    <linearGradient id="linear-gradient-41" x1="-12.27" y1="-1305.57" x2="-11.27" y2="-1305.57" gradientTransform="translate(-1907.24 195.36) rotate(-90) scale(1.59 -1.59)" xlink:href="#linear-gradient-6"/>
    <linearGradient id="linear-gradient-42" x1="-142.59" y1="-4674.45" x2="-141.59" y2="-4674.45" gradientTransform="translate(-908.3 170.09) rotate(-90) scale(.23 -.23)" xlink:href="#linear-gradient-6"/>
    <linearGradient id="linear-gradient-43" x1="-49.88" y1="-2277.9" x2="-48.88" y2="-2277.9" gradientTransform="translate(-1174.13 187.46) rotate(-90) scale(.59 -.59)" xlink:href="#linear-gradient-6"/>
    <linearGradient id="linear-gradient-44" x1="-24.6" y1="-1624.38" x2="-23.6" y2="-1624.38" gradientTransform="translate(-1484.84 186.12) rotate(-90) scale(1.03 -1.03)" xlink:href="#linear-gradient-6"/>
    <linearGradient id="linear-gradient-45" x1="-50.36" y1="-2290.43" x2="-49.36" y2="-2290.43" gradientTransform="translate(-1169.42 178.24) rotate(-90) scale(.59 -.59)" xlink:href="#linear-gradient-6"/>
    <linearGradient id="linear-gradient-46" x1="-739.58" y1="-20106.62" x2="-738.58" y2="-20106.62" gradientTransform="translate(-772.02 170.87) rotate(-90) scale(.05 -.05)" xlink:href="#linear-gradient-6"/>
    <linearGradient id="linear-gradient-47" x1="-165.63" y1="-5269.93" x2="-164.63" y2="-5269.93" gradientTransform="translate(-885.37 182.45) rotate(-90) scale(.2 -.2)" xlink:href="#linear-gradient-6"/>
    <linearGradient id="linear-gradient-48" x1="-1153.35" y1="-30802.52" x2="-1152.35" y2="-30802.52" gradientTransform="translate(-759.44 180.78) rotate(-90) scale(.03 -.03)" xlink:href="#linear-gradient-6"/>
    <linearGradient id="linear-gradient-49" x1="-99.38" y1="-3557.43" x2="-98.38" y2="-3557.43" gradientTransform="translate(-969.38 180.18) rotate(-90) scale(.32 -.32)" xlink:href="#linear-gradient-6"/>
    <linearGradient id="linear-gradient-50" x1="-282.01" y1="-8278.32" x2="-281.01" y2="-8278.32" gradientTransform="translate(-821.95 174.96) rotate(-90) scale(.12 -.12)" xlink:href="#linear-gradient-6"/>
    <linearGradient id="linear-gradient-51" x1="-2023.83" y1="-53304.33" x2="-2022.83" y2="-53304.33" gradientTransform="translate(-750.14 180.62) rotate(-90) scale(.02 -.02)" xlink:href="#linear-gradient-6"/>
    <linearGradient id="linear-gradient-52" x1="183.22" y1="208.04" x2="183.22" y2="208.04" gradientTransform="matrix(0,0,0,0,-736.04,172.56)" xlink:href="#linear-gradient-6"/>
    <linearGradient id="linear-gradient-53" x1="-26.82" y1="-1681.9" x2="-25.82" y2="-1681.9" gradientTransform="translate(-1442.26 181) rotate(-90) scale(.96 -.96)" xlink:href="#linear-gradient-6"/>
    <linearGradient id="linear-gradient-54" x1="-238.16" y1="-7144.79" x2="-237.16" y2="-7144.79" gradientTransform="translate(-844.82 173.93) rotate(-90) scale(.14 -.14)" xlink:href="#linear-gradient-6"/>
    <linearGradient id="linear-gradient-55" x1="-32.7" y1="-1833.82" x2="-31.7" y2="-1833.82" gradientTransform="translate(-1347.61 181.64) rotate(-90) scale(.83 -.83)" xlink:href="#linear-gradient-6"/>
    <linearGradient id="linear-gradient-56" x1="-205.76" y1="-6307.25" x2="-204.76" y2="-6307.25" gradientTransform="translate(-858.7 181.78) rotate(-90) scale(.16 -.16)" xlink:href="#linear-gradient-6"/>
    <linearGradient id="linear-gradient-57" x1="-67.86" y1="-2742.66" x2="-66.86" y2="-2742.66" gradientTransform="translate(-1069.06 182.42) rotate(-90) scale(.46 -.46)" xlink:href="#linear-gradient-6"/>
    <linearGradient id="linear-gradient-58" x1="-3.92" y1="-1089.86" x2="-2.92" y2="-1089.86" gradientTransform="translate(-2601.62 205.47) rotate(-90) scale(2.55 -2.55)" xlink:href="#linear-gradient-6"/>
    <linearGradient id="linear-gradient-59" x1="-380.39" y1="-10821.45" x2="-379.39" y2="-10821.45" gradientTransform="translate(-804.67 181.13) rotate(-90) scale(.09 -.09)" xlink:href="#linear-gradient-6"/>
    <linearGradient id="linear-gradient-60" x1="-44.46" y1="-2137.83" x2="-43.46" y2="-2137.83" gradientTransform="translate(-1211.57 187) rotate(-90) scale(.65 -.65)" xlink:href="#linear-gradient-6"/>
    <linearGradient id="linear-gradient-61" x1="1.31" y1="-954.52" x2="2.31" y2="-954.52" gradientTransform="translate(-3725.06 218.29) rotate(-90) scale(4.09 -4.09)" xlink:href="#linear-gradient-6"/>
    <linearGradient id="linear-gradient-62" x1="-134.98" y1="-4477.82" x2="-133.98" y2="-4477.82" gradientTransform="translate(-918.47 174.21) rotate(-90) scale(.24 -.24)" xlink:href="#linear-gradient-6"/>
    <linearGradient id="linear-gradient-63" x1="-3.26" y1="-1072.79" x2="-2.26" y2="-1072.79" gradientTransform="translate(-2687.15 203.2) rotate(-90) scale(2.68 -2.68)" xlink:href="#linear-gradient-6"/>
    <linearGradient id="linear-gradient-64" x1="-117.23" y1="-4018.77" x2="-116.23" y2="-4018.77" gradientTransform="translate(-937.06 176.42) rotate(-90) scale(.28 -.28)" xlink:href="#linear-gradient-6"/>
    <linearGradient id="linear-gradient-65" x1="-33.77" y1="-1861.4" x2="-32.77" y2="-1861.4" gradientTransform="translate(-1326.14 181.46) rotate(-90) scale(.81 -.81)" xlink:href="#linear-gradient-6"/>
    <linearGradient id="linear-gradient-66" x1="-210" y1="-6416.94" x2="-209" y2="-6416.94" gradientTransform="translate(-857.3 173.13) rotate(-90) scale(.16 -.16)" xlink:href="#linear-gradient-6"/>
    <linearGradient id="linear-gradient-67" x1="-2.25" y1="-1046.57" x2="-1.25" y2="-1046.57" gradientTransform="translate(-2849.75 208.82) rotate(-90) scale(2.9 -2.9)" xlink:href="#linear-gradient-6"/>
    <linearGradient id="linear-gradient-68" x1="-184.41" y1="-5755.49" x2="-183.41" y2="-5755.49" gradientTransform="translate(-865.71 178.43) rotate(-90) scale(.18 -.18)" xlink:href="#linear-gradient-6"/>
    <linearGradient id="linear-gradient-69" x1="-88.68" y1="-3280.91" x2="-87.68" y2="-3280.91" gradientTransform="translate(-999.21 176.1) rotate(-90) scale(.36 -.36)" xlink:href="#linear-gradient-6"/>
    <linearGradient id="linear-gradient-70" x1="-43.14" y1="-2103.63" x2="-42.14" y2="-2103.63" gradientTransform="translate(-1222.95 177.54) rotate(-90) scale(.67 -.67)" xlink:href="#linear-gradient-6"/>
    <linearGradient id="linear-gradient-71" x1="-6.46" y1="-1155.59" x2="-5.46" y2="-1155.59" gradientTransform="translate(-2310.65 204.48) rotate(-90) scale(2.16 -2.16)" xlink:href="#linear-gradient-6"/>
    <linearGradient id="linear-gradient-72" x1="-15.11" y1="-1379.12" x2="-14.11" y2="-1379.12" gradientTransform="translate(-1774.43 194.97) rotate(-90) scale(1.41 -1.41)" xlink:href="#linear-gradient-6"/>
    <linearGradient id="linear-gradient-73" x1="6.47" y1="-821.28" x2="7.47" y2="-821.28" gradientTransform="translate(-8080.91 278.36) rotate(-90) scale(10.05 -10.05)" xlink:href="#linear-gradient-6"/>
    <linearGradient id="linear-gradient-74" x1="9.9" y1="-732.52" x2="10.9" y2="-732.52" gradientTransform="translate(-266860.33 4003.3) rotate(-90) scale(364.58 -364.58)" xlink:href="#linear-gradient-6"/>
    <linearGradient id="linear-gradient-75" x1="-318.63" y1="-9225.06" x2="-317.63" y2="-9225.06" gradientTransform="translate(-820.59 182.02) rotate(-90) scale(.11 -.11)" xlink:href="#linear-gradient-6"/>
    <linearGradient id="linear-gradient-76" x1="1.37" y1="-952.97" x2="2.37" y2="-952.97" gradientTransform="translate(-3736.3 216.45) rotate(-90) scale(4.12 -4.12)" xlink:href="#linear-gradient-6"/>
    <linearGradient id="linear-gradient-77" x1="-47.51" y1="-2216.68" x2="-46.51" y2="-2216.68" gradientTransform="translate(-1180.89 182.23) rotate(-90) scale(.62 -.62)" xlink:href="#linear-gradient-6"/>
    <linearGradient id="linear-gradient-78" x1="-3.18" y1="-1070.7" x2="-2.18" y2="-1070.7" gradientTransform="translate(-2696.97 205.98) rotate(-90) scale(2.69 -2.69)" xlink:href="#linear-gradient-6"/>
    <linearGradient id="linear-gradient-79" x1="-114.56" y1="-3949.76" x2="-113.56" y2="-3949.76" gradientTransform="translate(-938.32 179.2) rotate(-90) scale(.29 -.29)" xlink:href="#linear-gradient-6"/>
    <linearGradient id="linear-gradient-80" x1="-965.97" y1="-25958.62" x2="-964.97" y2="-25958.62" gradientTransform="translate(-758.53 181.12) rotate(-90) scale(.04 -.04)" xlink:href="#linear-gradient-6"/>
    <linearGradient id="linear-gradient-81" x1="-.47" y1="-1000.66" x2=".53" y2="-1000.66" gradientTransform="translate(-3214.65 211.44) rotate(-90) scale(3.39 -3.39)" xlink:href="#linear-gradient-6"/>
    <linearGradient id="linear-gradient-82" x1="-14.71" y1="-1368.86" x2="-13.71" y2="-1368.86" gradientTransform="translate(-1787.11 188.31) rotate(-90) scale(1.44 -1.44)" xlink:href="#linear-gradient-6"/>
    <linearGradient id="linear-gradient-83" x1="-9.61" y1="-1236.89" x2="-8.61" y2="-1236.89" gradientTransform="translate(-2056.65 195.44) rotate(-90) scale(1.81 -1.81)" xlink:href="#linear-gradient-6"/>
    <linearGradient id="linear-gradient-84" x1="-585.98" y1="-16136" x2="-584.98" y2="-16136" gradientTransform="translate(-778.77 178) rotate(-90) scale(.06 -.06)" xlink:href="#linear-gradient-6"/>
    <linearGradient id="linear-gradient-85" x1="-310.31" y1="-9009.88" x2="-309.31" y2="-9009.88" gradientTransform="translate(-819.48 177.02) rotate(-90) scale(.11 -.11)" xlink:href="#linear-gradient-6"/>
    <linearGradient id="linear-gradient-86" x1="-20.88" y1="-1528.19" x2="-19.88" y2="-1528.19" gradientTransform="translate(-1574.81 186.92) rotate(-90) scale(1.15 -1.15)" xlink:href="#linear-gradient-6"/>
    <linearGradient id="linear-gradient-87" x1="-15.33" y1="-1384.78" x2="-14.33" y2="-1384.78" gradientTransform="translate(-1761 191.76) rotate(-90) scale(1.4 -1.4)" xlink:href="#linear-gradient-6"/>
    <linearGradient id="linear-gradient-88" x1="-14.59" y1="-1365.73" x2="-13.59" y2="-1365.73" gradientTransform="translate(-1791.4 191.32) rotate(-90) scale(1.44 -1.44)" xlink:href="#linear-gradient-6"/>
    <linearGradient id="linear-gradient-89" x1="-110.58" y1="-3846.97" x2="-109.58" y2="-3846.97" gradientTransform="translate(-951.86 180.12) rotate(-90) scale(.29 -.29)" xlink:href="#linear-gradient-6"/>
    <linearGradient id="linear-gradient-90" x1="-32.63" y1="-1832.04" x2="-31.63" y2="-1832.04" gradientTransform="translate(-1345.3 183.62) rotate(-90) scale(.83 -.83)" xlink:href="#linear-gradient-6"/>
    <linearGradient id="linear-gradient-91" x1="181.5" y1="209.77" x2="181.56" y2="209.77" gradientTransform="translate(-739.95 174.33) rotate(-90) scale(0 0)" xlink:href="#linear-gradient-6"/>
    <linearGradient id="linear-gradient-92" x1="-1198.08" y1="-31958.73" x2="-1197.08" y2="-31958.73" gradientTransform="translate(-757.85 174.59) rotate(-90) scale(.03 -.03)" xlink:href="#linear-gradient-6"/>
    <linearGradient id="linear-gradient-93" x1="182.49" y1="212.84" x2="182.5" y2="212.84" gradientTransform="translate(-739.7 177.4) rotate(-90) scale(0 0)" xlink:href="#linear-gradient-6"/>
    <linearGradient id="linear-gradient-94" x1="181.15" y1="214.41" x2="181.24" y2="214.41" gradientTransform="matrix(0,0,0,0,-737.27,178.91)" xlink:href="#linear-gradient-6"/>
    <linearGradient id="linear-gradient-95" x1="-173.84" y1="-5482.29" x2="-172.84" y2="-5482.29" gradientTransform="translate(-878.09 180.83) rotate(-90) scale(.19 -.19)" xlink:href="#linear-gradient-6"/>
    <linearGradient id="linear-gradient-96" x1="-20.03" y1="-1506.35" x2="-19.03" y2="-1506.35" gradientTransform="translate(-1601.33 190.53) rotate(-90) scale(1.18 -1.18)" xlink:href="#linear-gradient-6"/>
    <linearGradient id="linear-gradient-97" x1="-28.39" y1="-1722.49" x2="-27.39" y2="-1722.49" gradientTransform="translate(-1410.36 188.12) rotate(-90) scale(.92 -.92)" xlink:href="#linear-gradient-6"/>
    <linearGradient id="linear-gradient-98" x1="-72.11" y1="-2852.57" x2="-71.11" y2="-2852.57" gradientTransform="translate(-1054.18 180.13) rotate(-90) scale(.43 -.43)" xlink:href="#linear-gradient-6"/>
    <linearGradient id="linear-gradient-99" x1="-16.88" y1="-1424.81" x2="-15.88" y2="-1424.81" gradientTransform="translate(-1700.12 190.38) rotate(-90) scale(1.32 -1.32)" xlink:href="#linear-gradient-6"/>
    <linearGradient id="linear-gradient-100" x1="-3.83" y1="-1087.53" x2="-2.83" y2="-1087.53" gradientTransform="translate(-2607.9 203.45) rotate(-90) scale(2.57 -2.57)" xlink:href="#linear-gradient-6"/>
    <linearGradient id="linear-gradient-101" x1="-11.29" y1="-1280.46" x2="-10.29" y2="-1280.46" gradientTransform="translate(-1955.01 192.04) rotate(-90) scale(1.67 -1.67)" xlink:href="#linear-gradient-6"/>
    <linearGradient id="linear-gradient-102" x1="-112.44" y1="-3894.94" x2="-111.44" y2="-3894.94" gradientTransform="translate(-948.02 176.6) rotate(-90) scale(.29 -.29)" xlink:href="#linear-gradient-6"/>
    <linearGradient id="linear-gradient-103" x1="-675.94" y1="-18461.44" x2="-674.94" y2="-18461.44" gradientTransform="translate(-772.26 174.74) rotate(-90) scale(.05 -.05)" xlink:href="#linear-gradient-6"/>
    <linearGradient id="linear-gradient-104" x1="-149.54" y1="-4854.04" x2="-148.54" y2="-4854.04" gradientTransform="translate(-896.81 176.67) rotate(-90) scale(.22 -.22)" xlink:href="#linear-gradient-6"/>
  </defs>
  <path class="cls-9" d="M238.9,389.08c26.33-5.39,50.83-16.05,72.82-31.68,2.5-1.78,5-3.65,7.43-5.56,4.83-3.8,9.55-7.88,14-12.13,4.46-4.25,8.76-8.76,12.78-13.41,3.03-3.5,5.96-7.14,8.72-10.83,25.08-33.54,38.34-73.47,38.34-115.47,0-11.48-1.01-22.98-3.01-34.17-.56-3.14-1.21-6.31-1.93-9.42-1.42-6.17-3.17-12.33-5.2-18.31-2-5.93-4.33-11.82-6.91-17.52-1.28-2.82-2.64-5.66-4.07-8.44-1.41-2.76-2.91-5.52-4.46-8.2-2.31-4.01-4.79-8-7.39-11.84-2.01-2.98-4.23-6.06-6.61-9.16-2.49-3.25-5.01-6.36-7.5-9.23-2.01-2.33-4.11-4.63-6.23-6.85-2.56-2.69-5.36-5.44-8.31-8.18-4.01-3.73-8.13-7.26-12.25-10.5-2.43-1.91-4.93-3.78-7.43-5.56-4.43-3.15-9.15-6.2-14.02-9.07-2.16-1.27-3.97-2.3-5.71-3.25-16.67-9.05-34.53-15.57-53.09-19.37-1.57-.32-3.15-.62-4.73-.91-4.75-.85-9.61-1.53-14.43-2.02-6.51-.66-13.15-1-19.74-1s-13.23.34-19.74,1c-4.82.49-9.68,1.17-14.43,2.02-1.58.28-3.16.59-4.73.91-18.56,3.8-36.42,10.31-53.09,19.37-1.71.93-3.53,1.96-5.71,3.25-4.87,2.86-9.59,5.91-14.02,9.07-2.52,1.79-5.02,3.66-7.43,5.56-4.12,3.24-8.24,6.77-12.25,10.5-2.95,2.75-5.75,5.5-8.31,8.18-2.13,2.24-4.23,4.54-6.23,6.85-2.48,2.86-5,5.97-7.5,9.24-2.42,3.16-4.58,6.16-6.61,9.16-2.6,3.85-5.08,7.83-7.39,11.84-1.55,2.69-3.05,5.45-4.46,8.2-1.42,2.77-2.79,5.61-4.06,8.44-2.58,5.7-4.9,11.6-6.91,17.52-2.03,5.98-3.77,12.14-5.2,18.31-.71,3.09-1.36,6.26-1.93,9.42-2,11.2-3.01,22.7-3.01,34.17,0,42,13.26,81.93,38.34,115.47,2.77,3.7,5.7,7.34,8.72,10.83,4.03,4.65,8.33,9.16,12.78,13.4,4.45,4.25,9.17,8.33,14.01,12.13,2.42,1.9,4.92,3.77,7.43,5.56,21.99,15.63,46.48,26.29,72.82,31.68,1.57.32,3.15.62,4.73.91,4.76.85,9.61,1.53,14.43,2.02,13.02,1.32,26.47,1.32,39.48,0,4.82-.49,9.67-1.17,14.43-2.02,1.58-.28,3.16-.59,4.73-.91Z"/>
  <path class="cls-8" d="M272.95,377.95l65.77-76.65,29.73-93.47-44.6-122.9-119.69-59.47-110.25,43.61-47.57,80.28-14.78,70.37,76.23,93.17,138.76,25.77,59.47-70.37-9.91-124.88-91.94-56.49-69.62,27.75s-46.58,49.56-47.57,55.5c-.99,5.95,33.7,79.29,35.68,83.25,1.98,3.96,104.07,23.79,104.07,23.79l31.72-64.95s-42.62-44.08-45.59-44.08-52.53.99-57.49,3.96c-4.96,2.97-8.92,32.65-7.93,40.11.99,7.46,46.58,20.35,46.58,20.35,0,0,11.38-13.94,10.15-20.35-1.23-6.41-23.03-8.39-23.03-8.39l3.96-10.25h29.73l4.96,39-46.58,15.81-50.55-44.55,8.92-49.48,68.43-26.84,56.45,44.6,21.8,57.49-39.65,77.31-114.97-25.77-56.49-104.95,45.59-84.35,80.28-31.52,115.96,67.2,19.82,120.87-48.57,79.34-54.82,62.86c.37.02,2.88-.33,6.42-.94,1.41-.24,2.96-.58,4.67-.83.9-.13,1.83-.34,2.83-.58.37-.09.77-.23,1.15-.31,12.66-2.32,26.05-7.45,30.29-9.06.26-.1,1.81-.65,2.17-.96Z"/>
  <g>
    <path class="cls-7" d="M238.9,389.08c26.33-5.39,50.83-16.05,72.82-31.68,2.5-1.78,5-3.65,7.43-5.56,4.83-3.8,9.55-7.88,14-12.13,4.46-4.25,8.76-8.76,12.78-13.41,3.03-3.5,5.96-7.14,8.72-10.83,25.08-33.54,38.34-73.47,38.34-115.47,0-11.48-1.01-22.98-3.01-34.17-.56-3.14-1.21-6.31-1.93-9.42-1.42-6.17-3.17-12.33-5.2-18.31-2-5.93-4.33-11.82-6.91-17.52-1.28-2.82-2.64-5.66-4.07-8.44-1.41-2.76-2.91-5.52-4.46-8.2-2.31-4.01-4.79-8-7.39-11.84-2.01-2.98-4.23-6.06-6.61-9.16-2.49-3.25-5.01-6.36-7.5-9.23-2.01-2.33-4.11-4.63-6.23-6.85-2.56-2.69-5.36-5.44-8.31-8.18-4.01-3.73-8.13-7.26-12.25-10.5-2.43-1.91-4.93-3.78-7.43-5.56-4.43-3.15-9.15-6.2-14.02-9.07-2.16-1.27-3.97-2.3-5.71-3.25-16.67-9.05-34.53-15.57-53.09-19.37-1.57-.32-3.15-.62-4.73-.91-4.75-.85-9.61-1.53-14.43-2.02-6.51-.66-13.15-1-19.74-1s-13.23.34-19.74,1c-4.82.49-9.68,1.17-14.43,2.02-1.58.28-3.16.59-4.73.91-18.56,3.8-36.42,10.31-53.09,19.37-1.71.93-3.53,1.96-5.71,3.25-4.87,2.86-9.59,5.91-14.02,9.07-2.52,1.79-5.02,3.66-7.43,5.56-4.12,3.24-8.24,6.77-12.25,10.5-2.95,2.75-5.75,5.5-8.31,8.18-2.13,2.24-4.23,4.54-6.23,6.85-2.48,2.86-5,5.97-7.5,9.24-2.42,3.16-4.58,6.16-6.61,9.16-2.6,3.85-5.08,7.83-7.39,11.84-1.55,2.69-3.05,5.45-4.46,8.2-1.42,2.77-2.79,5.61-4.06,8.44-2.58,5.7-4.9,11.6-6.91,17.52-2.03,5.98-3.77,12.14-5.2,18.31-.71,3.09-1.36,6.26-1.93,9.42-2,11.2-3.01,22.7-3.01,34.17,0,42,13.26,81.93,38.34,115.47,2.77,3.7,5.7,7.34,8.72,10.83,4.03,4.65,8.33,9.16,12.78,13.4,4.45,4.25,9.17,8.33,14.01,12.13,2.42,1.9,4.92,3.77,7.43,5.56,21.99,15.63,46.48,26.29,72.82,31.68,1.57.32,3.15.62,4.73.91,4.76.85,9.61,1.53,14.43,2.02,13.02,1.32,26.47,1.32,39.48,0,4.82-.49,9.67-1.17,14.43-2.02,1.58-.28,3.16-.59,4.73-.91Z"/>
    <path class="cls-6" d="M224.92,391.4c3.1-.4,6.2-.87,9.25-1.41,1.58-.28,3.16-.59,4.73-.91,14.76-3.02,28.94-7.7,42.43-13.98l57.39-74.84,29.73-93.47-44.6-122.9-119.69-59.47-110.25,43.61-47.57,80.28-14.78,70.37,76.23,93.17,138.76,25.77,59.47-70.37-9.91-124.88-91.94-56.49-69.62,27.75s-46.58,49.56-47.57,55.5,33.7,79.29,35.68,83.25c1.98,3.96,104.07,23.79,104.07,23.79l31.72-64.95s-42.62-44.08-45.59-44.08-52.53.99-57.49,3.96c-4.96,2.97-8.92,32.65-7.93,40.11s46.58,20.35,46.58,20.35c0,0,11.38-13.94,10.15-20.35-1.23-6.41-23.03-8.39-23.03-8.39l3.96-10.25h29.73l4.96,39-46.58,15.81-50.55-44.55,8.92-49.48,68.43-26.84,56.45,44.6,21.8,57.49-39.65,77.31-114.97-25.77-56.49-104.95,45.59-84.35,80.28-31.52,115.96,67.2,19.82,120.87-48.57,79.34-55.32,64.69Z"/>
  </g>
  <g>
    <path class="cls-3" d="M238.52,389.08c26.33-5.39,50.83-16.05,72.82-31.68,2.5-1.78,5-3.65,7.43-5.56,4.83-3.8,9.55-7.88,14-12.13,4.46-4.25,8.76-8.76,12.78-13.41,3.03-3.5,5.96-7.14,8.72-10.83,25.08-33.54,38.34-73.47,38.34-115.47,0-11.48-1.01-22.98-3.01-34.17-.56-3.14-1.21-6.31-1.93-9.42-1.42-6.17-3.17-12.33-5.2-18.31-2-5.93-4.33-11.82-6.91-17.52-1.28-2.82-2.64-5.66-4.07-8.44-1.41-2.76-2.91-5.52-4.46-8.2-2.31-4.01-4.79-8-7.39-11.84-2.01-2.98-4.23-6.06-6.61-9.16-2.49-3.25-5.01-6.36-7.5-9.23-2.01-2.33-4.11-4.63-6.23-6.85-2.56-2.69-5.36-5.44-8.31-8.18-4.01-3.73-8.13-7.26-12.25-10.5-2.43-1.91-4.93-3.78-7.43-5.56-4.43-3.15-9.15-6.2-14.02-9.07-2.16-1.27-3.97-2.3-5.71-3.25-16.67-9.05-34.53-15.57-53.09-19.37-1.57-.32-3.15-.62-4.73-.91-4.75-.85-9.61-1.53-14.43-2.02-6.51-.66-13.15-1-19.74-1s-13.23.34-19.74,1c-4.82.49-9.68,1.17-14.43,2.02-1.58.28-3.16.59-4.73.91-18.56,3.8-36.42,10.31-53.09,19.37-1.71.93-3.53,1.96-5.71,3.25-4.87,2.86-9.59,5.91-14.02,9.07-2.52,1.79-5.02,3.66-7.43,5.56-4.12,3.24-8.24,6.77-12.25,10.5-2.95,2.75-5.75,5.5-8.31,8.18-2.13,2.24-4.23,4.54-6.23,6.85-2.48,2.86-5,5.97-7.5,9.24-2.42,3.16-4.58,6.16-6.61,9.16-2.6,3.85-5.08,7.83-7.39,11.84-1.55,2.69-3.05,5.45-4.46,8.2-1.42,2.77-2.79,5.61-4.06,8.44-2.58,5.7-4.9,11.6-6.91,17.52-2.03,5.98-3.77,12.14-5.2,18.31-.71,3.09-1.36,6.26-1.93,9.42-2,11.2-3.01,22.7-3.01,34.17,0,42,13.26,81.93,38.34,115.47,2.77,3.7,5.7,7.34,8.72,10.83,4.03,4.65,8.33,9.16,12.78,13.4,4.45,4.25,9.17,8.33,14.01,12.13,2.42,1.9,4.92,3.77,7.43,5.56,21.99,15.63,46.48,26.29,72.82,31.68,1.57.32,3.15.62,4.73.91,4.76.85,9.61,1.53,14.43,2.02,13.02,1.32,26.47,1.32,39.48,0,4.82-.49,9.67-1.17,14.43-2.02,1.58-.28,3.16-.59,4.73-.91Z"/>
    <path class="cls-4" d="M272.56,377.95l65.77-76.65,29.73-93.47-44.6-122.9-119.69-59.47-110.25,43.61-47.57,80.28-14.78,70.37,76.23,93.17,138.76,25.77,59.47-70.37-9.91-124.88-91.94-56.49-69.62,27.75s-46.58,49.56-47.57,55.5,33.7,79.29,35.68,83.25c1.98,3.96,104.07,23.79,104.07,23.79l31.72-64.95s-42.62-44.08-45.59-44.08-52.53.99-57.49,3.96c-4.96,2.97-8.92,32.65-7.93,40.11s46.58,20.35,46.58,20.35c0,0,11.38-13.94,10.15-20.35-1.23-6.41-23.03-8.39-23.03-8.39l3.96-10.25h29.73l4.96,39-46.58,15.81-50.55-44.55,8.92-49.48,68.43-26.84,56.45,44.6,21.8,57.49-39.65,77.31-114.97-25.77-56.49-104.95,45.59-84.35,80.28-31.52,115.96,67.2,19.82,120.87-48.57,79.34-54.82,62.86c.37.02,2.88-.33,6.42-.94,1.41-.24,2.96-.58,4.67-.83.9-.13,1.83-.34,2.83-.58.37-.09.77-.23,1.15-.31,12.66-2.32,26.05-7.45,30.29-9.06.26-.1,1.81-.65,2.17-.96Z"/>
    <path class="cls-3" d="M238.52,389.08c26.33-5.39,50.83-16.05,72.82-31.68,2.5-1.78,5-3.65,7.43-5.56,4.83-3.8,9.55-7.88,14-12.13,4.46-4.25,8.76-8.76,12.78-13.41,3.03-3.5,5.96-7.14,8.72-10.83,25.08-33.54,38.34-73.47,38.34-115.47,0-11.48-1.01-22.98-3.01-34.17-.56-3.14-1.21-6.31-1.93-9.42-1.42-6.17-3.17-12.33-5.2-18.31-2-5.93-4.33-11.82-6.91-17.52-1.28-2.82-2.64-5.66-4.07-8.44-1.41-2.76-2.91-5.52-4.46-8.2-2.31-4.01-4.79-8-7.39-11.84-2.01-2.98-4.23-6.06-6.61-9.16-2.49-3.25-5.01-6.36-7.5-9.23-2.01-2.33-4.11-4.63-6.23-6.85-2.56-2.69-5.36-5.44-8.31-8.18-4.01-3.73-8.13-7.26-12.25-10.5-2.43-1.91-4.93-3.78-7.43-5.56-4.43-3.15-9.15-6.2-14.02-9.07-2.16-1.27-3.97-2.3-5.71-3.25-16.67-9.05-34.53-15.57-53.09-19.37-1.57-.32-3.15-.62-4.73-.91-4.75-.85-9.61-1.53-14.43-2.02-6.51-.66-13.15-1-19.74-1s-13.23.34-19.74,1c-4.82.49-9.68,1.17-14.43,2.02-1.58.28-3.16.59-4.73.91-18.56,3.8-36.42,10.31-53.09,19.37-1.71.93-3.53,1.96-5.71,3.25-4.87,2.86-9.59,5.91-14.02,9.07-2.52,1.79-5.02,3.66-7.43,5.56-4.12,3.24-8.24,6.77-12.25,10.5-2.95,2.75-5.75,5.5-8.31,8.18-2.13,2.24-4.23,4.54-6.23,6.85-2.48,2.86-5,5.97-7.5,9.24-2.42,3.16-4.58,6.16-6.61,9.16-2.6,3.85-5.08,7.83-7.39,11.84-1.55,2.69-3.05,5.45-4.46,8.2-1.42,2.77-2.79,5.61-4.06,8.44-2.58,5.7-4.9,11.6-6.91,17.52-2.03,5.98-3.77,12.14-5.2,18.31-.71,3.09-1.36,6.26-1.93,9.42-2,11.2-3.01,22.7-3.01,34.17,0,42,13.26,81.93,38.34,115.47,2.77,3.7,5.7,7.34,8.72,10.83,4.03,4.65,8.33,9.16,12.78,13.4,4.45,4.25,9.17,8.33,14.01,12.13,2.42,1.9,4.92,3.77,7.43,5.56,21.99,15.63,46.48,26.29,72.82,31.68,1.57.32,3.15.62,4.73.91,4.76.85,9.61,1.53,14.43,2.02,13.02,1.32,26.47,1.32,39.48,0,4.82-.49,9.67-1.17,14.43-2.02,1.58-.28,3.16-.59,4.73-.91Z"/>
    <path class="cls-2" d="M224.53,391.4c3.1-.4,6.2-.87,9.25-1.41,1.58-.28,3.16-.59,4.73-.91,14.76-3.02,28.94-7.7,42.43-13.98l57.39-74.84,29.73-93.47-44.6-122.9-119.69-59.47-110.25,43.61-47.57,80.28-14.78,70.37,76.23,93.17,138.76,25.77,59.47-70.37-9.91-124.88-91.94-56.49-69.62,27.75s-46.58,49.56-47.57,55.5,33.7,79.29,35.68,83.25c1.98,3.96,104.07,23.79,104.07,23.79l31.72-64.95s-42.62-44.08-45.59-44.08-52.53.99-57.49,3.96c-4.96,2.97-8.92,32.65-7.93,40.11s46.58,20.35,46.58,20.35c0,0,11.38-13.94,10.15-20.35-1.23-6.41-23.03-8.39-23.03-8.39l3.96-10.25h29.73l4.96,39-46.58,15.81-50.55-44.55,8.92-49.48,68.43-26.84,56.45,44.6,21.8,57.49-39.65,77.31-114.97-25.77-56.49-104.95,45.59-84.35,80.28-31.52,115.96,67.2,19.82,120.87-48.57,79.34-55.32,64.69Z"/>
    <path class="cls-1" d="M239.29,389.08c26.33-5.39,50.83-16.05,72.82-31.68,2.5-1.78,5-3.65,7.43-5.56,4.83-3.8,9.55-7.88,14-12.13,4.46-4.25,8.76-8.76,12.78-13.41,3.03-3.5,5.96-7.14,8.72-10.83,25.08-33.54,38.34-73.47,38.34-115.47,0-11.48-1.01-22.98-3.01-34.17-.56-3.14-1.21-6.31-1.93-9.42-1.42-6.17-3.17-12.33-5.2-18.31-2-5.93-4.33-11.82-6.91-17.52-1.28-2.82-2.64-5.66-4.07-8.44-1.41-2.76-2.91-5.52-4.46-8.2-2.31-4.01-4.79-8-7.39-11.84-2.01-2.98-4.23-6.06-6.61-9.16-2.49-3.25-5.01-6.36-7.5-9.23-2.01-2.33-4.11-4.63-6.23-6.85-2.56-2.69-5.36-5.44-8.31-8.18-4.01-3.73-8.13-7.26-12.25-10.5-2.43-1.91-4.93-3.78-7.43-5.56-4.43-3.15-9.15-6.2-14.02-9.07-2.16-1.27-3.97-2.3-5.71-3.25-16.67-9.05-34.53-15.57-53.09-19.37-1.57-.32-3.15-.62-4.73-.91-4.75-.85-9.61-1.53-14.43-2.02-6.51-.66-13.15-1-19.74-1s-13.23.34-19.74,1c-4.82.49-9.68,1.17-14.43,2.02-1.58.28-3.16.59-4.73.91-18.56,3.8-36.42,10.31-53.09,19.37-1.71.93-3.53,1.96-5.71,3.25-4.87,2.86-9.59,5.91-14.02,9.07-2.52,1.79-5.02,3.66-7.43,5.56-4.12,3.24-8.24,6.77-12.25,10.5-2.95,2.75-5.75,5.5-8.31,8.18-2.13,2.24-4.23,4.54-6.23,6.85-2.48,2.86-5,5.97-7.5,9.24-2.42,3.16-4.58,6.16-6.61,9.16-2.6,3.85-5.08,7.83-7.39,11.84-1.55,2.69-3.05,5.45-4.46,8.2-1.42,2.77-2.79,5.61-4.06,8.44-2.58,5.7-4.9,11.6-6.91,17.52-2.03,5.98-3.77,12.14-5.2,18.31-.71,3.09-1.36,6.26-1.93,9.42-2,11.2-3.01,22.7-3.01,34.17,0,42,13.26,81.93,38.34,115.47,2.77,3.7,5.7,7.34,8.72,10.83,4.03,4.65,8.33,9.16,12.78,13.4,4.45,4.25,9.17,8.33,14.01,12.13,2.42,1.9,4.92,3.77,7.43,5.56,21.99,15.63,46.48,26.29,72.82,31.68,1.57.32,3.15.62,4.73.91,4.76.85,9.61,1.53,14.43,2.02,13.02,1.32,26.47,1.32,39.48,0,4.82-.49,9.67-1.17,14.43-2.02,1.58-.28,3.16-.59,4.73-.91Z"/>
    <path class="cls-5" d="M183.76,210.47l.09.25c-.08-.27-.21-.53-.39-.77.11.16.22.32.29.52Z"/>
    <path class="cls-21" d="M183.34,213.31l.02-.03-.02.03Z"/>
    <path class="cls-22" d="M183.22,208.04c-.14-.07-.28-.14-.43-.19.15.05.29.11.43.19Z"/>
    <path class="cls-23" d="M183.22,213.45l.12-.14-.12.14Z"/>
    <path class="cls-24" d="M179.25,211.82v.03s0-.03,0-.03Z"/>
    <path class="cls-26" d="M183.24,209.68c-.25-.25-.54-.44-.85-.56.34.15.63.34.85.56Z"/>
    <path class="cls-37" d="M182.45,207.75l-.21-.05.21.05Z"/>
    <path class="cls-38" d="M182.78,207.85c-.11-.04-.22-.07-.33-.09.11.03.22.06.33.09Z"/>
    <path class="cls-39" d="M178.44,209.55l-.04.09.04-.09Z"/>
    <path class="cls-40" d="M178.5,209.44l-.06.11.06-.11Z"/>
    <path class="cls-25" d="M181.24,214.4c.12,0,.23-.01.34-.03-.11.02-.23.03-.34.03Z"/>
    <path class="cls-28" d="M179.18,211.42c0,.14.03.27.07.41-.04-.13-.06-.27-.07-.41Z"/>
    <path class="cls-27" d="M180.47,211.68c-.14-.34-.06-.71.15-.98-.21.27-.3.64-.15.98Z"/>
    <path class="cls-29" d="M179.97,210.88v.06s0-.06,0-.06Z"/>
    <path class="cls-30" d="M180,210.8l-.02.08.02-.08Z"/>
    <path class="cls-46" d="M181,210.4c.15-.07.32-.1.5-.07-.18-.03-.35,0-.5.07Z"/>
    <path class="cls-32" d="M180.63,210.7c.1-.13.23-.23.37-.3-.15.07-.27.17-.37.3Z"/>
    <path class="cls-47" d="M180.57,213.25h.02s-.02,0-.02,0Z"/>
    <path class="cls-45" d="M180.59,213.26l.09.02-.09-.02Z"/>
    <path class="cls-31" d="M183.01,211.03v-.05s0,.05,0,.05Z"/>
    <path class="cls-48" d="M183,210.98l-.02-.05.02.05Z"/>
    <path class="cls-36" d="M180.83,209.92l-.1.05.1-.05Z"/>
    <path class="cls-34" d="M181.19,209.8c-.12.02-.24.06-.36.12.12-.05.24-.09.36-.12Z"/>
    <path class="cls-33" d="M176.77,217.03l.04.03-.04-.03Z"/>
    <path class="cls-35" d="M186.19,215.71c.08-.11.17-.21.24-.32-.07.11-.16.22-.24.32Z"/>
    <path class="cls-42" d="M186.42,215.39c.15-.23.28-.48.4-.73-.12.26-.25.5-.4.73Z"/>
    <path class="cls-41" d="M187.46,210.95l-.02-.16.02.16Z"/>
    <path class="cls-43" d="M186.83,214.65l.06-.11-.06.11Z"/>
    <path class="cls-49" d="M184.5,206.52c-.09-.05-.18-.1-.28-.15.09.05.19.1.28.15Z"/>
    <path class="cls-44" d="M184.75,206.67l-.25-.16.25.16Z"/>
    <path class="cls-50" d="M180.8,205.77c-.14.02-.28.05-.42.08.14-.04.28-.06.42-.08Z"/>
    <path class="cls-12" d="M185.78,216.22c.15-.16.27-.34.4-.51-.13.18-.26.35-.4.51Z"/>
    <path class="cls-13" d="M174.1,213.32c.18.55.43,1.09.75,1.59-.31-.5-.56-1.03-.75-1.59Z"/>
    <path class="cls-14" d="M179.63,203.04c-.24.06-.47.14-.7.23.23-.09.47-.17.7-.23Z"/>
    <path class="cls-11" d="M176.07,216.44c.22.21.45.41.69.59-.24-.18-.47-.38-.69-.59Z"/>
    <path class="cls-19" d="M181.5,210.33h0c.59.06.91.53.95,1.03-.04-.5-.35-.97-.95-1.03Z"/>
    <path class="cls-17" d="M177.9,207.27c-.18.18-.35.38-.5.59.16-.22.32-.41.5-.59Z"/>
    <path class="cls-20" d="M180.38,205.85l-.17.05.17-.05Z"/>
    <path class="cls-18" d="M179.56,215.72c.24.09.49.16.74.2-.24-.05-.49-.11-.74-.2Z"/>
    <path class="cls-16" d="M180.38,215.94c.13.02.27.02.41.03-.14,0-.27,0-.41-.03Z"/>
    <path class="cls-15" d="M185.29,212.43c.02-.11.03-.22.04-.32,0,.11-.03.22-.04.32Z"/>
    <path class="cls-58" d="M184.59,209.25l-.09-.12.09.12Z"/>
    <path class="cls-59" d="M180.3,215.93l.07.02-.07-.02Z"/>
    <path class="cls-60" d="M183.22,208.04h0s0,0,0,0Z"/>
    <path class="cls-54" d="M179.53,206.15c.22-.1.45-.18.67-.25-.66.18-1.29.49-1.86.96.35-.28.74-.53,1.18-.72Z"/>
    <path class="cls-55" d="M177.41,207.86l-.1.14.1-.14Z"/>
    <path class="cls-56" d="M177.3,208c-.18.27-.34.54-.47.83.14-.3.3-.58.47-.83Z"/>
    <path class="cls-57" d="M178.98,215.47c.12.06.24.11.37.16-.13-.05-.25-.11-.37-.16Z"/>
    <path class="cls-51" d="M181.6,213.32c.32-.06.59-.21.82-.41-.47.39-1.13.52-1.74.37.29.09.6.11.92.04Z"/>
    <path class="cls-52" d="M178.98,215.47c-1.01-.54-1.83-1.46-2.29-2.55.39,1.06,1.15,1.99,2.29,2.55Z"/>
    <polygon class="cls-53" points="179.56 215.72 179.35 215.63 179.53 215.71 179.56 215.72"/>
    <path class="cls-68" d="M183.3,215.33c-.84.5-1.7.69-2.52.64.94.07,1.8-.17,2.52-.64Z"/>
    <path class="cls-69" d="M176.69,212.92c-.48-1.3-.42-2.79.14-4.09l-.09.16c-.62,1.34-.55,2.74-.06,3.93Z"/>
    <path class="cls-70" d="M177.9,207.27l.24-.24-.24.24Z"/>
    <path class="cls-64" d="M184.59,209.25c.52.76.8,1.72.76,2.68.08-.92-.14-1.86-.76-2.68Z"/>
    <path class="cls-65" d="M184.27,208.85c.08.09.16.18.23.28-.08-.09-.15-.19-.23-.28Z"/>
    <path class="cls-66" d="M183.22,208.04c.16.08.31.18.46.29.22.16.41.34.58.52-.3-.33-.65-.61-1.05-.81Z"/>
    <path class="cls-67" d="M178.14,207.02l.2-.16-.2.16Z"/>
    <path class="cls-61" d="M185.29,212.43c-.25,1.17-.97,2.24-1.98,2.9l.12-.07c1.11-.74,1.68-1.77,1.86-2.83Z"/>
    <path class="cls-62" d="M185.35,211.93l-.02.18.02-.18Z"/>
    <path class="cls-63" d="M180.09,208.01c.78-.32,1.51-.41,2.16-.31-.74-.13-1.49,0-2.16.31Z"/>
    <path class="cls-80" d="M180.8,205.77c1.16-.16,2.36.06,3.42.6-1.04-.56-2.23-.8-3.42-.6Z"/>
    <path class="cls-78" d="M182.45,218.23c1.28-.29,2.42-1.01,3.29-1.97-2.23,2.38-6.13,2.82-8.94.8,1.53,1.13,3.5,1.66,5.65,1.17Z"/>
    <path class="cls-74" d="M175.95,216.33c-.25-.25-.49-.52-.71-.82-.15-.19-.27-.39-.4-.59.32.51.68.99,1.1,1.41Z"/>
    <path class="cls-79" d="M174.32,207.78c-.82,1.85-.81,3.81-.22,5.55-1.25-3.89.96-8.57,4.83-10.05-2.02.75-3.75,2.27-4.61,4.51Z"/>
    <path class="cls-76" d="M349.6,115.38c-38.75-61.3-114.56-97.08-186.44-84.43C77.9,44.91,15.77,126.1,21.48,211.68c3.6,72.77,60.96,136.94,133.94,144.96,35.43,4.56,72.61-5.53,100.5-27.69,80.37-62.9,69.38-193.9-31.11-228.48-58.75-19.79-121.41,11.61-140.26,70.7-10.86,33.08-5,71.45,17.57,98.32,21.87,27,59.01,40.97,93.1,33.01,46.44-10.36,76.54-59.37,65.43-105.47-10.62-46.49-63.51-75.11-106.91-52.48-30.77,15.81-46.2,54.92-33.16,87.2,10.18,26.62,39.85,44.24,68.05,38.47,41.45-7.92,60.56-61.44,30.4-92.15-15.58-16.38-42.95-20.13-61.27-6.17-18.27,13.11-24.62,40.57-12.08,59.64,5.98,9.39,15.93,16.21,26.95,18.01,16.89,3.19,34.04-6.71,40.09-22.72,8.88-22.22-6.28-47.28-30.89-46.65-17.33.51-30.5,17.43-27.52,34.34,2.67,17.16,22.63,28,37.82,18.51,15.12-9.29,15.31-32.89-1.61-40.31-13.92-6.2-28.99,5.33-26.87,20.36,1.09,8.25,8.72,15.02,17.1,14.71,15.76-.43,21.07-22.7,5.93-28.85-8.23-3.28-17.25,3.13-17.05,11.94-.12,8.83,10.61,14.84,17.55,8.8,4.25-3.54,4.88-10.71.69-14.53-2.24-2.25-5.46-2.9-8.27-2.12.25-.07.5-.13.76-.17,4.08-.74,8.29,1.84,9.7,5.7,2.6,6.66-3.31,14.39-10.46,13.41-9-.97-12.68-11.74-7.44-18.68,7.55-10.15,23.03-3.81,23.38,8.23.49,11.93-12.03,19.84-22.6,14.23-13.4-7-11.48-26.6,1.75-32.63,10.04-4.8,22.75,1.1,26.62,11.28,2.07,4.98,2.04,10.7.32,15.78-5.82,17.05-26.98,20.88-39.35,8.31-12.07-11.87-8.98-32.83,4.62-42.19,13.57-9.87,33.38-4.58,41.96,9.33,12.23,18.9,1.25,45.58-20.19,51.51-28.44,7.51-53.02-19.33-46.43-47.22,3.25-15.61,15.66-28.91,31.19-32.71,15.41-3.94,32.54,1.52,43.41,12.98,15.15,15.21,17.41,40.02,7.42,58.62-9.55,18.86-31.01,30.65-52.04,27.81-20.95-2.17-39.56-17.12-46.94-36.72-7.61-19.53-3.95-42.55,8.06-59.54,11.89-17.05,32.35-27.7,53.18-26.91,31.57.56,59.65,24.78,66.18,55.43,4.52,20.07.22,41.99-10.81,59.27-23.26,36.84-70.98,46.31-107.73,23.91-46.75-28.3-54.35-90.87-22.5-133.42,56.93-74.26,169.4-31.14,177.19,57.74,6.79,87.28-76.8,151.38-158.86,118.28-79.48-32.42-102.03-128.74-56.38-198.49,59.59-91.06,188.7-79.83,243.81,9.63,42.41,67,25.06,160.19-32.62,212.65-27.39,25.73-62.75,40.84-99.49,43.97,11.54.89,23.34.75,34.8-.41,4.82-.49,9.67-1.17,14.43-2.02,1.58-.28,3.16-.59,4.73-.91,26.33-5.39,50.83-16.05,72.82-31.68,2.5-1.78,5-3.65,7.43-5.56,4.83-3.8,9.55-7.88,14-12.13,4.46-4.25,8.76-8.76,12.78-13.41,3.03-3.5,5.96-7.14,8.72-10.83,5.54-7.41,10.51-15.14,14.88-23.14,4.13-12.37,7.19-25.28,9.07-38.65,7.07-47.67-2.92-97.91-29.41-138.31Z"/>
    <path class="cls-73" d="M176.07,216.44l-.12-.11.12.11Z"/>
    <path class="cls-77" d="M184.75,206.67c1.39.93,2.43,2.43,2.69,4.12-.26-1.8-1.31-3.24-2.69-4.12Z"/>
    <path class="cls-75" d="M187.46,210.95c.03.2.04.41.04.62,0-.21-.02-.42-.04-.62Z"/>
    <path class="cls-72" d="M187.49,211.85c0,.19-.02.39-.05.59-.08.77-.27,1.48-.56,2.11.31-.66.52-1.37.58-2.11.03-.2.02-.39.02-.59Z"/>
    <path class="cls-71" d="M187.5,211.56c0,.09,0,.19-.01.29,0-.1.01-.19.01-.29Z"/>
    <path class="cls-90" d="M185.78,216.22l-.04.04.04-.04Z"/>
    <path class="cls-89" d="M178.07,211.53c.05.54.25,1.06.55,1.5-.63-.98-.71-2.3-.22-3.39-.28.55-.41,1.19-.34,1.89Z"/>
    <path class="cls-86" d="M178.5,209.44c.37-.63.93-1.13,1.58-1.44l-.26.09c-.6.32-1.04.8-1.33,1.34Z"/>
    <path class="cls-85" d="M183.01,211.03c.15.63-.05,1.34-.51,1.81.24-.22.42-.51.5-.86.11-.32.1-.65,0-.95Z"/>
    <path class="cls-87" d="M182.49,212.85l-.08.06.08-.06Z"/>
    <path class="cls-84" d="M179.18,211.42v-.11s0,.11,0,.11Z"/>
    <path class="cls-88" d="M181.56,209.78c.62.07,1.19.54,1.42,1.15-.09-.3-.26-.57-.53-.78-.27-.24-.58-.35-.88-.37Z"/>
    <path class="cls-81" d="M180.57,213.25c-.62-.23-1.11-.77-1.31-1.4.09.3.24.6.48.86.23.27.51.44.82.54Z"/>
    <path class="cls-82" d="M180.03,211.87c.08.21.23.38.4.52-.39-.34-.59-.91-.48-1.44-.07.29-.06.6.08.93Z"/>
    <path class="cls-83" d="M181.21,212.68c-.28-.01-.55-.12-.77-.29.21.18.47.29.77.29Z"/>
    <path class="cls-100" d="M180,210.8c.13-.36.4-.65.73-.83l-.17.09c-.29.2-.47.46-.56.75Z"/>
    <path class="cls-98" d="M181.5,209.77h.06s-.06,0-.06,0Z"/>
    <path class="cls-95" d="M181.19,209.8c.1-.02.21-.04.31-.03-.11,0-.21,0-.31.03Z"/>
    <path class="cls-96" d="M182.5,212.84h0s0,0,0,0Z"/>
    <path class="cls-97" d="M181.24,214.4h-.09s.09,0,.09,0Z"/>
    <path class="cls-99" d="M181.15,214.41c-.17,0-.35-.02-.53-.06-.18-.03-.34-.08-.5-.13.16.06.33.1.5.13.18.04.36.06.53.06Z"/>
    <path class="cls-92" d="M180.11,214.21c-.61-.22-1.13-.65-1.49-1.18.34.53.84.95,1.49,1.18Z"/>
    <path class="cls-93" d="M183.22,213.45c-.43.48-1,.82-1.64.92.67-.1,1.23-.44,1.64-.92Z"/>
    <path class="cls-94" d="M179.17,211.3c0-.14.01-.29.04-.43-.03.14-.04.29-.04.43Z"/>
    <path class="cls-91" d="M181.73,212.58c.53-.2.76-.73.72-1.22.04.5-.2,1.03-.72,1.22-.18.07-.36.1-.52.1.18,0,.35-.02.52-.1Z"/>
    <path class="cls-105" d="M183.85,210.72c.25.86.05,1.83-.49,2.57.55-.72.79-1.67.49-2.57Z"/>
    <path class="cls-104" d="M179.22,210.82v.05c.13-.69.58-1.32,1.19-1.67-.58.29-1.05.82-1.19,1.62Z"/>
    <path class="cls-103" d="M180.41,209.21c.6-.3,1.33-.33,1.97-.09l-.05-.03c-.69-.29-1.37-.2-1.92.11Z"/>
    <path class="cls-102" d="M183.24,209.68l.05.05-.05-.05Z"/>
    <path class="cls-101" d="M183.29,209.73l.18.22-.18-.22Z"/>
  </g>
  <g>
    <path class="cls-10" d="M224.78,206.3l10.94-10.94-20.77-20.77-10.94,10.94c-6.15-3.87-12.98-6.74-20.28-8.4v-15.47h-29.38v15.47c-7.3,1.66-14.13,4.54-20.28,8.4l-10.94-10.94-20.77,20.77,10.94,10.94c-3.87,6.15-6.74,12.98-8.4,20.28h-15.47v29.38h15.47c1.66,7.3,4.54,14.13,8.4,20.28l-10.94,10.94,20.77,20.77,10.94-10.94c6.15,3.87,12.98,6.74,20.28,8.4v15.47h29.38v-15.47c7.3-1.66,14.13-4.54,20.28-8.4l10.94,10.94,20.77-20.77-10.94-10.94c3.87-6.15,6.74-12.98,8.4-20.28h15.47v-29.38h-15.47c-1.66-7.3-4.54-14.13-8.4-20.28ZM148.4,241.14c0-11.46,9.33-20.79,20.79-20.79s20.79,9.33,20.79,20.79-9.33,20.79-20.79,20.79-20.79-9.33-20.79-20.79ZM169.05,195.53c7.26,0,14.13,1.71,20.24,4.73l-12.08,12.08c-2.55-.71-5.24-1.1-8.02-1.1s-5.62.41-8.23,1.16l-12.14-12.14c6.11-3.03,12.97-4.73,20.24-4.73ZM123.31,241.27c0-7.26,1.71-14.13,4.73-20.24l12.28,12.28c-.68,2.5-1.04,5.12-1.04,7.83s.39,5.47,1.1,8.02l-12.34,12.34c-3.03-6.11-4.73-12.97-4.73-20.24ZM169.05,287.01c-7.26,0-14.13-1.71-20.24-4.73l12.33-12.33c2.56.71,5.25,1.1,8.04,1.1s5.33-.37,7.83-1.04l12.27,12.27c-6.11,3.03-12.97,4.73-20.24,4.73ZM197.93,249.38c.75-2.62,1.16-5.38,1.16-8.23s-.39-5.48-1.1-8.04l12.07-12.07c3.03,6.11,4.73,12.97,4.73,20.24s-1.71,14.13-4.73,20.24l-12.13-12.13Z"/>
    <path class="cls-10" d="M177.95,132.18l-8.24,3.72,7.06,15.64,8.24-3.72c2.64,3.48,5.81,6.43,9.35,8.78l-3.2,8.46,16.06,6.07,3.2-8.46c4.2.58,8.53.47,12.82-.4l3.72,8.24,15.64-7.06-3.72-8.24c3.48-2.64,6.43-5.81,8.78-9.35l8.46,3.2,6.07-16.06-8.46-3.2c.58-4.2.47-8.53-.4-12.82l8.24-3.72-7.06-15.64-8.24,3.72c-2.64-3.48-5.81-6.43-9.35-8.78l3.2-8.46-16.06-6.07-3.2,8.46c-4.2-.58-8.53-.47-12.82.4l-3.72-8.24-15.64,7.06,3.72,8.24c-3.48,2.64-6.43,5.81-8.78,9.35l-8.46-3.2-6.07,16.06,8.46,3.2c-.58,4.2-.47,8.53.4,12.82ZM239.99,113.58c6.07,13.43.07,29.29-13.36,35.36s-29.29.07-35.36-13.36c-6.07-13.43-.07-29.29,13.36-35.36,13.43-6.07,29.29-.07,35.36,13.36Z"/>
    <path class="cls-10" d="M199.75,131.67c3.97,8.79,14.32,12.7,23.11,8.73,8.79-3.97,12.7-14.32,8.73-23.11s-14.32-12.7-23.11-8.73c-8.79,3.97-12.7,14.32-8.73,23.11ZM210.67,113.41c6.1-2.76,13.31-.03,16.07,6.07,2.76,6.1.03,13.31-6.07,16.07s-13.31.03-16.07-6.07c-2.76-6.1-.03-13.31,6.07-16.07Z"/>
    <path class="cls-10" d="M302.75,212.36l6.84,2.54,4.82-12.98-6.84-2.54c.45-3.39.34-6.88-.39-10.34l6.63-3.04-5.77-12.58-6.63,3.04c-2.15-2.8-4.72-5.16-7.58-7.03l2.54-6.84-12.98-4.82-2.54,6.84c-3.39-.45-6.88-.34-10.33.39l-3.04-6.63-12.58,5.77,3.04,6.63c-2.8,2.15-5.16,4.72-7.03,7.58l-6.84-2.54-4.82,12.98,6.84,2.54c-.45,3.39-.34,6.88.39,10.34l-6.63,3.04,5.77,12.58,6.63-3.04c2.15,2.8,4.72,5.16,7.58,7.03l-2.54,6.84,12.98,4.82,2.54-6.84c3.39.45,6.88.34,10.33-.39l3.04,6.63,12.58-5.77-3.04-6.63c2.8-2.15,5.16-4.72,7.03-7.58ZM252.96,195.36c0-7.1,3.12-13.49,8.06-17.86l.06.13c0-.06,0-.12,0-.19,4.21-3.7,9.72-5.95,15.74-5.95,13.16,0,23.87,10.71,23.87,23.87s-10.71,23.87-23.87,23.87-23.87-10.71-23.87-23.87Z"/>
  </g>
</svg>